<svg width="502" height="121" viewBox="0 0 502 121" fill="none" xmlns="http://www.w3.org/2000/svg">
<path d="M416.722 0.123172L416.586 0.0777716C416.223 0.0583162 416.891 0.200994 416.722 0.123172Z" fill="#24150C"/>
<path d="M237.382 25.934C236.927 24.4783 236.329 23.0708 235.599 21.7317C231.454 14.1112 223.476 9.36481 214.801 9.35802H166.053C158.328 9.36256 151.093 13.1367 146.668 19.4684C145.069 17.6051 143.264 15.9298 141.286 14.4748C139.784 13.3723 138.182 12.4147 136.5 11.6148L136.059 11.4268C134.24 10.6754 132.362 10.0788 130.443 9.64337C129.729 9.48124 129.016 9.34505 128.303 9.22831H128.14L127.557 9.144C126.42 8.98858 125.274 8.90414 124.126 8.89111H123.153H122.22C121.395 8.92159 120.572 8.99516 119.755 9.11159L119.146 9.1959H118.97C116.3 9.62626 113.689 10.364 111.188 11.3944L110.747 11.5889C108.644 12.5792 106.665 13.8157 104.852 15.2725C102.542 17.1421 100.482 19.3023 98.7239 21.6992C97.6094 23.2017 96.5892 24.772 95.6694 26.401C94.5195 28.4252 93.4888 30.5147 92.5825 32.6591C91.1633 29.535 89.1602 26.7109 86.681 24.3387L86.266 23.9366C85.5137 23.2297 84.6447 22.4775 83.6719 21.6992C80.0132 18.8218 75.9224 16.5411 71.5512 14.9417C68.5079 13.8152 65.3569 13.0047 62.1478 12.5228C58.3684 11.942 54.5392 11.7529 50.721 11.9586C50.3708 11.9586 49.7871 11.9586 49.0219 12.0299C45.8534 12.2377 42.7079 12.7106 39.6184 13.4436C32.8758 14.9573 26.4896 17.7606 20.8116 21.6992C15.496 25.45 11.0521 30.3031 7.78293 35.9276C6.46346 38.1927 5.32503 40.5585 4.37824 43.0029C3.5784 45.0522 2.89098 47.1166 2.31596 49.1962C1.18581 53.2029 0.464453 57.3139 0.162901 61.466C-0.169293 65.8836 0.00695787 70.3248 0.688195 74.7022C1.0768 77.2556 1.63797 79.7798 2.36784 82.2574C2.67913 83.3209 3.01635 84.3521 3.36007 85.3378C4.80674 89.4549 6.7193 93.3932 9.0605 97.0759C9.64416 97.9968 10.2278 98.8593 10.8115 99.6699C12.5931 102.16 14.6178 104.467 16.8556 106.557C19.2978 108.856 21.9414 110.931 24.7545 112.757C29.2724 115.605 34.3272 117.494 39.6055 118.308C42.7156 118.819 45.8579 119.109 49.0089 119.177C49.9622 119.177 50.9544 119.223 51.9596 119.223C53.689 119.223 55.4984 119.182 57.3877 119.099C58.9765 119.037 60.561 118.892 62.1348 118.665C65.3473 118.217 68.5008 117.416 71.5382 116.278C74.0631 115.346 76.4895 114.167 78.7821 112.757C78.9507 112.66 79.1258 112.549 79.2945 112.439L80.2996 111.46L81.6745 112.757L81.908 112.977C83.2234 114.24 84.6944 115.33 86.2854 116.22C89.1701 117.787 92.366 118.695 95.6435 118.879C97.0965 118.983 98.555 118.983 100.008 118.879C101.643 118.767 103.26 118.466 104.826 117.984C108.009 116.994 110.878 115.193 113.153 112.757C115.56 110.124 117.465 107.073 118.776 103.756H128.439C129.004 105.139 129.654 106.486 130.384 107.789C131.395 109.586 132.619 111.253 134.029 112.757C136.036 114.91 138.509 116.574 141.26 117.621C143.153 118.324 145.139 118.748 147.155 118.879C154.684 119.417 160.774 117.407 165.527 112.757C166.419 111.881 167.247 110.943 168.005 109.949C168.478 109.339 168.932 108.697 169.373 108.003C171.156 110.778 173.491 113.156 176.234 114.988C179.991 117.508 184.396 118.889 188.919 118.963H189.354C192.527 118.968 195.669 118.328 198.588 117.083C206.741 113.613 212.282 105.891 212.96 97.0564C212.998 96.4728 213.024 95.8891 213.024 95.2925V60.2339H214.801C216.474 60.2384 218.142 60.0603 219.775 59.7021C225.999 58.3602 231.419 54.5688 234.814 49.1832C235.918 47.466 236.791 45.6103 237.408 43.6644C238.132 41.3669 238.5 38.972 238.498 36.5632V33.0287C238.491 30.6207 238.115 28.228 237.382 25.934ZM43.075 67.4388C42.8954 65.4368 43.0731 63.4188 43.6003 61.479C44.3335 58.6419 46.3267 56.2973 49.0089 55.1171C49.6839 54.8119 50.3878 54.5751 51.1101 54.4102C51.9408 54.2111 52.7915 54.1066 53.6458 54.0989C54.0803 54.095 54.5143 54.13 54.9428 54.2027C56.577 54.4751 58.3605 55.3441 60.3968 56.8486C60.9557 57.3162 61.5426 57.7494 62.1542 58.1456C64.5196 59.7246 67.1588 60.8485 69.9364 61.4596C70.4682 61.5763 71.0065 61.6735 71.5577 61.7514C73.8372 62.0678 76.1552 61.969 78.3995 61.4596C79.7514 61.156 81.0668 60.7081 82.323 60.1236C82.1738 60.5776 82.0247 61.0186 81.8755 61.4596C80.8185 64.6438 79.8522 67.5815 79.061 70.0459C76.6327 69.3067 74.0904 69.0144 71.5577 69.1833C68.2388 69.4207 65.0201 70.4241 62.1542 72.1146C61.142 72.6952 60.1712 73.3453 59.2489 74.0602C58.9506 74.2742 58.6717 74.4817 58.3929 74.6698C55.7988 76.4791 53.6976 77.2638 50.9674 76.6153C50.2907 76.4476 49.6373 76.1971 49.0219 75.8695C48.67 75.6842 48.328 75.4807 47.9972 75.2599C47.6859 75.0589 47.3941 74.8513 47.1217 74.6568C44.8195 73.0809 43.4057 71.5375 43.075 67.4129V67.4388ZM164.937 60.2339H165.676V62.4194C165.573 62.1016 165.462 61.7709 165.352 61.4531C165.242 61.1353 165.08 60.623 164.937 60.2079V60.2339Z" fill="#24150C"/>
<path d="M66.2658 49.3453C66.2658 49.3453 73.1919 55.6618 80.7342 49.89C82.4138 48.152 86.3632 45.6747 84.716 39.0664C83.9178 36.0263 82.282 33.2715 79.9948 31.1156C75.7471 27.0105 66.6355 20.5578 50.909 21.3879C50.909 21.3879 22.9257 21.2063 13.1396 46.3362C3.35357 71.4661 14.9036 91.8553 23.1916 99.4624C31.4796 107.069 38.0036 110.331 56.9143 109.514C75.8249 108.697 82.8548 95.6556 82.8548 95.6556C85.1467 90.6572 83.9193 84.749 79.8262 81.077C78.192 79.2612 71.5836 76.2262 64.9104 81.5245C61.7911 83.8397 56.3176 87.6205 48.6587 85.7788C46.504 85.2481 44.4615 84.3366 42.6275 83.0874C38.6327 80.4155 34.2358 76.8098 33.5483 68.0743C32.8026 58.9173 36.5704 47.9705 48.8662 45.0457C51.3472 44.4257 53.9276 44.311 56.4538 44.7084C59.0608 45.1818 62.2904 46.3427 66.2658 49.3453Z" fill="white"/>
<path d="M161.26 79.8255C161.26 79.8255 152.025 50.1171 146.344 37.5294C141.448 25.3893 135.702 21.6992 132.369 20.1363C130.537 19.3723 128.622 18.828 126.662 18.515L126.409 18.4761H126.169C125.389 18.3655 124.603 18.307 123.815 18.301H123.277C122.489 18.307 121.702 18.3655 120.922 18.4761H120.689L120.43 18.515C118.47 18.828 116.554 19.3723 114.723 20.1363C111.396 21.6992 105.644 25.3893 100.754 37.5294C95.0403 50.1171 85.8379 79.8255 85.8379 79.8255C84.9505 82.4352 84.2611 85.1082 83.7757 87.8216C83.3316 90.1724 83.136 92.5635 83.192 94.9552C83.213 96.938 83.6667 98.8924 84.5215 100.682C88.192 107.614 92.6084 109.761 99.3335 109.307C106.059 108.853 108.912 103.334 110.747 97.9643C111.558 95.5843 112.92 94.3002 114.82 94.1576H132.33C134.236 94.3002 135.572 95.5843 136.402 97.9643C138.238 103.334 141.091 108.833 147.816 109.307C154.541 109.78 158.964 107.614 162.628 100.682C166.292 93.749 161.26 79.8255 161.26 79.8255ZM128.186 75.2405H118.834C118.273 75.2453 117.718 75.1127 117.22 74.8542C116.721 74.5957 116.294 74.2192 115.974 73.7575C115.654 73.2958 115.452 72.7629 115.385 72.2053C115.319 71.6476 115.39 71.0822 115.592 70.5582L120.287 58.444C120.537 57.7947 120.978 57.2365 121.552 56.8428C122.125 56.4491 122.805 56.2383 123.5 56.2383C124.196 56.2383 124.875 56.4491 125.449 56.8428C126.023 57.2365 126.464 57.7947 126.714 58.444L131.364 70.5582C131.566 71.0791 131.638 71.6415 131.574 72.1966C131.51 72.7518 131.312 73.283 130.997 73.7442C130.681 74.2054 130.258 74.5827 129.763 74.8435C129.269 75.1042 128.719 75.2405 128.16 75.2405H128.186Z" fill="white"/>
<path d="M214.717 18.7809H165.962C158.135 18.7809 151.789 25.124 151.785 32.9509V36.5177C151.785 44.3472 158.132 50.6942 165.962 50.6942H169.788C172.707 50.6942 175.076 53.0545 175.086 55.9731V95.2276C175.086 103.057 181.433 109.404 189.263 109.404C197.092 109.404 203.439 103.057 203.439 95.2276V55.9731C203.439 53.0469 205.811 50.6748 208.738 50.6748H214.717C222.536 50.6709 228.876 44.3371 228.887 36.5177V32.9509C228.887 25.125 222.543 18.7809 214.717 18.7809Z" fill="white"/>
<path d="M501.93 48.0677C501.642 43.3704 500.529 38.7606 498.642 34.449C496.194 28.8157 492.5 23.8112 487.838 19.812C480.757 13.7111 471.786 10.2448 462.442 10H461.366H438.668C437.083 10.0002 435.501 10.1566 433.947 10.467C428.549 11.566 423.695 14.4943 420.206 18.7572C416.717 23.0202 414.806 28.3566 414.796 33.8653V33.9237C413.346 30.7069 411.477 27.6956 409.238 24.9677C407.719 23.1095 406.04 21.3886 404.219 19.825C398.691 15.0407 391.97 11.8447 384.77 10.5772C382.434 10.1677 380.067 9.96151 377.695 9.96112H354.997C353.693 9.9646 352.392 10.073 351.106 10.2854C345.535 11.2199 340.475 14.0966 336.822 18.4056C333.169 22.7146 331.16 28.1776 331.151 33.8264V44.7603C331.073 44.7085 331.151 44.8836 331.112 83.7943L331.151 91.2847V96.4014C331.151 96.6998 331.151 97.0045 331.151 97.3028C331.325 101.923 332.837 106.392 335.503 110.169C338.169 113.946 341.875 116.867 346.17 118.577C350.465 120.287 355.165 120.713 359.697 119.803C364.23 118.893 368.4 116.686 371.702 113.451L371.884 113.282C376.151 109.033 378.644 103.321 378.856 97.3028C378.856 97.0045 378.856 96.6998 378.856 96.4014V89.378H383.051C383.635 89.378 384.212 89.378 384.783 89.3326C389.966 89.0908 395.031 87.6973 399.608 85.2535C403.213 83.3303 406.459 80.8009 409.206 77.7761C410.206 76.6828 411.131 75.5237 411.975 74.3066C413.026 72.8147 413.959 71.2426 414.764 69.6049V96.4209C414.764 96.7192 414.764 97.024 414.764 97.3223C414.904 100.976 415.881 104.549 417.62 107.766C419.359 110.983 421.813 113.757 424.794 115.876C427.774 117.994 431.202 119.4 434.811 119.985C438.421 120.569 442.117 120.318 445.614 119.249C448.736 118.299 451.626 116.711 454.103 114.586C454.518 114.229 454.92 113.866 455.322 113.47L455.497 113.302C459.55 109.269 462.008 103.907 462.416 98.2043C462.416 97.9125 462.455 97.6141 462.468 97.3223C462.481 97.0305 462.468 96.7192 462.468 96.4209V89.378H466.671C471.275 89.3829 475.836 88.4839 480.095 86.7321C481.163 86.292 482.209 85.7985 483.227 85.2535C484.827 84.4065 486.355 83.4328 487.799 82.3416C492.209 79.063 495.79 74.7974 498.255 69.8863C500.72 64.9752 502.001 59.5551 501.995 54.06V50.6488C502.015 49.7863 501.982 48.9173 501.93 48.0677ZM375.153 50.3051C375.054 50.0827 375.003 49.8417 375.003 49.5982C375.003 49.3561 375.056 49.1168 375.159 48.8979C375.492 49.1065 375.809 49.3406 376.106 49.5982C375.81 49.8615 375.491 50.0981 375.153 50.3051ZM458.811 50.3051C458.712 50.0836 458.661 49.8439 458.661 49.6015C458.661 49.3591 458.712 49.1194 458.811 48.8979C459.149 49.1016 459.468 49.336 459.764 49.5982C459.469 49.863 459.15 50.0997 458.811 50.3051Z" fill="#24150C"/>
<path d="M273.466 114.398C272.582 114.402 271.7 114.339 270.826 114.21C267.34 113.681 264.07 112.194 261.381 109.914C258.692 107.634 256.69 104.65 255.599 101.298C251.341 99.3994 247.726 96.305 245.193 92.3907C242.66 88.4763 241.319 83.9106 241.332 79.2483V76.4532C241.344 71.8729 242.651 67.3894 245.1 63.5193C247.55 59.6492 251.043 56.5499 255.178 54.5788C257.921 30.493 269.51 16.2193 286.533 16.1869H286.916C289.594 16.1869 312.603 17.2699 317.539 53.7098C322.193 55.4145 326.213 58.5035 329.06 62.5613C331.906 66.6192 333.442 71.4513 333.46 76.4078V79.2029C333.472 83.865 332.131 88.4304 329.598 92.3446C327.065 96.2588 323.45 99.3533 319.192 101.252C318.137 104.439 316.264 107.293 313.761 109.529C311.257 111.765 308.21 113.306 304.925 113.996C303.753 114.228 302.56 114.343 301.365 114.339C300.716 114.339 300.068 114.339 299.419 114.248L293.959 113.762L293.031 113.853C291.384 114.015 289.711 114.099 288.051 114.099C286.1 114.098 284.152 113.985 282.214 113.762L275.217 114.287C274.568 114.378 273.985 114.398 273.466 114.398Z" fill="white"/>
<path d="M286.883 21.0507C289.478 21.0507 309.543 22.2051 313.051 57.4907C322.071 59.3087 328.56 67.2323 328.563 76.4337V79.2288C328.563 87.6634 323.093 95.1235 315.048 97.6596C314.078 103.462 309.647 108.074 303.887 109.274C303.033 109.444 302.164 109.527 301.293 109.521C300.794 109.521 300.288 109.521 299.782 109.45L293.861 108.918L292.48 109.054C290.989 109.203 289.484 109.281 287.986 109.281C286.076 109.28 284.168 109.159 282.273 108.918L274.795 109.482C274.354 109.482 273.907 109.534 273.459 109.534C272.823 109.537 272.188 109.492 271.559 109.398C265.493 108.45 260.718 103.717 259.717 97.6596C251.673 95.1235 246.203 87.6634 246.202 79.2288V76.4337C246.202 68.3666 251.213 61.148 258.77 58.3272C259.075 58.2105 259.419 58.1067 259.711 58.0095C260.515 48.0807 264.698 21.0442 286.566 21.0442H286.896M286.896 11.3165H286.449C273.44 11.3619 262.798 18.5409 256.488 31.5566C253.187 38.353 251.52 45.772 250.651 51.4595C241.865 56.7147 236.476 66.1896 236.449 76.4272V79.2223C236.416 89.9167 242.287 99.7563 251.715 104.806C254.967 112.406 261.92 117.781 270.093 119.015C271.21 119.181 272.337 119.263 273.466 119.262C274.114 119.262 274.815 119.261 275.535 119.184L282.078 118.691C284.043 118.9 286.017 119.006 287.992 119.009C289.808 119.009 291.644 118.918 293.446 118.736L293.913 118.691L298.92 119.138C299.724 119.216 300.528 119.249 301.3 119.249C302.824 119.252 304.345 119.104 305.84 118.808C313.49 117.208 319.887 111.995 322.999 104.826C332.443 99.7827 338.326 89.9342 338.291 79.2288V76.4337C338.267 65.3111 331.914 55.1719 321.916 50.2986C319.536 35.9665 314.134 25.2855 305.775 18.5215C300.459 14.0826 293.806 11.5589 286.883 11.3554L286.896 11.3165Z" fill="#24150C"/>
<path d="M270.489 94.6634C270.063 93.438 269.887 92.1394 269.973 90.8448C270.059 89.5502 270.404 88.2861 270.988 87.1277C272.687 83.6776 276.501 76.2521 278.991 73.6386C282.195 69.4492 290.016 66.8163 296.086 74.3779C302.156 81.9396 307.188 90.1627 303.485 95.1303C299.782 100.098 292.059 95.7788 291.073 95.4546C290.087 95.1303 284.743 94.3846 280.697 96.5247C276.65 98.6647 271.734 98.1719 270.502 94.7996C270.493 94.7548 270.489 94.7091 270.489 94.6634Z" fill="#F58F87"/>
<path d="M258.258 77.5556C258.272 78.2114 258.357 78.8637 258.511 79.5012C259.056 81.7256 261.047 86.9266 265.755 85.474C271.455 83.71 270.029 77.2054 269.043 74.0796C268.161 71.2845 264.198 65.5387 260.23 70.4025C259.083 71.8251 258.404 73.5667 258.284 75.3896C258.239 76.1107 258.23 76.8337 258.258 77.5556Z" fill="#F58F87"/>
<path d="M316.449 76.317C316.435 76.9727 316.351 77.625 316.196 78.2625C315.652 80.4869 313.667 85.688 308.952 84.2353C303.252 82.4714 304.679 75.9668 305.664 72.841C306.553 70.0459 310.515 64.3001 314.478 69.1574C315.624 70.5798 316.304 72.3215 316.423 74.1445C316.475 74.8675 316.484 75.5929 316.449 76.317Z" fill="#F58F87"/>
<path d="M282.201 55.9147C282.337 60.7008 280.664 64.741 276.663 64.741C272.713 64.8967 270.768 61.025 270.638 56.239C270.509 51.453 272.979 47.5035 276.17 47.4128C278.797 47.4128 282.065 51.1287 282.201 55.9147Z" fill="#F58F87"/>
<path d="M289.335 55.0068C289.199 59.7929 290.872 63.8396 294.873 63.8331C298.816 63.9952 300.762 60.1171 300.898 55.3376C301.034 50.558 298.55 46.6021 295.36 46.5113C292.733 46.5113 289.465 50.2273 289.335 55.0068Z" fill="#F58F87"/>
<path d="M377.604 19.6564H354.906C353.052 19.6521 351.215 20.0139 349.5 20.721C347.786 21.4281 346.228 22.4666 344.916 23.777C343.604 25.0874 342.563 26.6438 341.853 28.3572C341.144 30.0706 340.78 31.9071 340.781 33.7615V96.3365C340.86 100.024 342.381 103.534 345.017 106.114C347.653 108.694 351.195 110.139 354.883 110.139C358.572 110.139 362.114 108.694 364.75 106.114C367.386 103.534 368.906 100.024 368.985 96.3365V82.2184C368.984 81.8653 369.053 81.5155 369.188 81.189C369.322 80.8625 369.52 80.5658 369.769 80.3158C370.019 80.0658 370.315 79.8674 370.641 79.7321C370.967 79.5968 371.317 79.5271 371.67 79.5271H382.935C386.291 79.528 389.614 78.8677 392.715 77.584C395.816 76.3003 398.633 74.4183 401.006 72.0456C403.38 69.6728 405.263 66.8558 406.547 63.7553C407.831 60.6548 408.493 57.3317 408.493 53.9757V50.5645C408.494 46.5067 407.697 42.4884 406.145 38.7389C404.594 34.9895 402.319 31.5824 399.45 28.7122C396.582 25.8421 393.176 23.5651 389.428 22.0112C385.68 20.4574 381.662 19.6572 377.604 19.6564ZM382.332 55.1884C381.585 55.9356 380.698 56.5282 379.722 56.9322C378.746 57.3361 377.7 57.5435 376.644 57.5425H371.456C370.708 57.5425 369.99 57.2453 369.461 56.7163C368.932 56.1872 368.635 55.4697 368.635 54.7215V44.2999C368.634 43.9292 368.707 43.5619 368.848 43.2193C368.989 42.8766 369.197 42.5653 369.459 42.3032C369.721 42.0411 370.033 41.8333 370.375 41.6918C370.718 41.5504 371.085 41.478 371.456 41.4789H376.644C378.234 41.4797 379.787 41.9515 381.109 42.8347C382.43 43.718 383.46 44.9731 384.069 46.4415C384.677 47.9098 384.837 49.5256 384.528 51.0848C384.219 52.6439 383.455 54.0764 382.332 55.2014V55.1884Z" fill="white"/>
<path d="M461.256 19.6564H438.558C436.704 19.653 434.867 20.0154 433.154 20.7229C431.44 21.4303 429.883 22.469 428.572 23.7793C427.26 25.0896 426.22 26.6458 425.511 28.3587C424.802 30.0716 424.438 31.9076 424.44 33.7615V96.3365C424.519 100.024 426.039 103.534 428.675 106.114C431.311 108.694 434.853 110.139 438.541 110.139C442.23 110.139 445.772 108.694 448.408 106.114C451.044 103.534 452.564 100.024 452.643 96.3365V82.2184C452.642 81.8653 452.711 81.5155 452.846 81.189C452.98 80.8625 453.178 80.5658 453.427 80.3158C453.677 80.0658 453.973 79.8674 454.299 79.7321C454.625 79.5968 454.975 79.5271 455.328 79.5271H466.593C469.949 79.5279 473.272 78.8677 476.373 77.584C479.474 76.3003 482.291 74.4183 484.665 72.0456C487.038 69.6728 488.921 66.8558 490.205 63.7553C491.49 60.6548 492.151 57.3317 492.151 53.9757V50.5645C492.152 46.5062 491.355 42.4873 489.803 38.7374C488.251 34.9876 485.975 31.5802 483.106 28.7099C480.237 25.8397 476.831 23.5628 473.082 22.0094C469.332 20.4559 465.314 19.6564 461.256 19.6564ZM465.983 55.1884C465.237 55.9356 464.35 56.5282 463.374 56.9322C462.398 57.3361 461.352 57.5435 460.296 57.5425H455.108C454.359 57.5425 453.642 57.2453 453.113 56.7162C452.584 56.1872 452.287 55.4697 452.287 54.7215V44.2999C452.286 43.9292 452.358 43.5619 452.5 43.2193C452.641 42.8766 452.849 42.5653 453.111 42.3032C453.373 42.0411 453.684 41.8333 454.027 41.6918C454.37 41.5504 454.737 41.478 455.108 41.4788H460.296C461.885 41.4796 463.439 41.9515 464.76 42.8347C466.082 43.718 467.112 44.9731 467.721 46.4415C468.329 47.9098 468.489 49.5256 468.18 51.0847C467.87 52.6439 467.106 54.0764 465.983 55.2014V55.1884Z" fill="white"/>
</svg>
